<svg xmlns="http://www.w3.org/2000/svg" viewBox="0 0 535 296.46"><defs><style>.cls-1{fill:#231f20;}.cls-2{fill:#d2b772;}.cls-3{fill:#f0ca71;}.cls-4{fill:#a97c50;}.cls-5{fill:#d7ab6e;}.cls-6{fill:#c49a6c;}.cls-7{fill:#c3cfa6;}.cls-8{fill:#95c5ea;}.cls-9{fill:#b99b6d;}.cls-10{fill:#e2c473;}.cls-11{fill:#cae1f5;}.cls-12{fill:#dae2d5;}</style></defs><title>Asset 1@72x-100</title><g id="Layer_2" data-name="Layer 2"><g id="Graf"><path class="cls-1" d="M236.32,126.87c-1.57,4.08-.86,8.4,1.59,9.65h0c2.46,1.25,5.72-1.05,7.3-5.13L276.32,51c1.58-4.09.86-8.41-1.59-9.66h0c-2.46-1.25-5.73,1.05-7.3,5.13Z"/><path class="cls-2" d="M241.32,119.24c-1.4,3.62-1.45,7.11-.11,7.79h0c1.32.68,3.54-1.71,4.95-5.33l27.58-71.32c1.39-3.62,1.44-7.11.12-7.78h0c-1.34-.68-3.55,1.71-5,5.32Z"/><path class="cls-1" d="M472.78,109.19s.67-16.76.67-19-.73-3.62-6.3-3.9-17.45-.83-19.64,4.18,0,15.28-2.18,18.35c-11.16-1.4-50.63,4.65-59.79,8.85-2.76-4.2-11.46-9.46-14.22-.52-2.74,4.21-8.7-2.63-8.7-2.63s-30.27-55.2-35.77-66.24S301.18-4.8,296.6.45s2.29,23.14,10.54,43.11,33.46,58.88,37.14,67.3c-4.6,2.11-4.13,2.11-3.68,7.88-19.71,1.58-62.35,2.11-83.89-.52-34.39-15.25-108.2-39.43-144-42.59,2.75-15.24,2.75-22.07,2.75-22.07S98.53,42,93,35.68c-12.38,2.63-26.13,7.88-30.26,9.46S61.86,72,62.31,78.79C33.89,89.3,8.68,107.18,3.63,119.27c-2.29,10.51,4.13,25.76,6,31.54s9.63,8.41,12.38,10.51c2.29,18.41,32.1,77.28,47.22,89.91,8.25,7.89,3.21,7.36.46,8.41s-14.22.53-20.17-3.67-15.59-14.21-18.34-10.53,9.63,12.62,9.63,12.62c-7.34,2.63-17.89,4.73-24.76,2.11s-18.34-.53-15.59,4.2,20.17,2.1,27.05,2.63c5,1.05,2.75,4.2-2.75,5.26s-10.09.52-6.87,6.3,16,1.58,24.29-1.57,21.09-4.21,23.84-2.63c-2.29,4.2,6,5.26,13.3,4.2s32.09-7.36,39.42-4.2c-13.74,4.2-12.37,8.94-9.16,10.51s28.88,1.59,44-2.63a93.94,93.94,0,0,1,28.89-3.15c-1.38,5.26,5,5.78,11,5.26s25.68-4.73,34.39-3.69,32.55,7.89,35.3,4.21S259,274.36,259,274.36s11.46.52,15.57,2.63,14.68,4.2,11.93-3.68c13.29,1.05,40.34,2.62,48.59,4.73l8.26,2.1s-4.13,3.68,3.21,4.73,18.33-1.57,21.54,2.63c-4.58,1.05-15.58,1.58-12.84,6.31s17.89,2.11,23.39,0,33-2.1,40.34-2.63,58.69-1.05,66.94,2.11c6.42.52,8.25-2.63,6-5.26,6.42,1.57,11.46,4.72,17.42,0s15.13-13.15,18.8-11-5-6.84-13.3-1.06c-6.42,2.63-28.88,6.84-16.5-5.26-5.05-1.57-13.75,2.64-16,3.69s-4.13-4.73-4.13-4.73a41.17,41.17,0,0,1,17.42-11c10.55-3.16,16.5-10,7.33-11S477.69,261.21,474.48,267a32.81,32.81,0,0,0-3.67-6.83s28.43-36.28,35.31-65.72c6-8.93,6.42-13.14,6.87-18.93s3.67-16.82,7.34-22.6c8.25-5.78,14.21-3.16,14.67-17.36S509.09,110.13,472.78,109.19Z"/><path class="cls-3" d="M526.1,126.7c1.4-1.66-8.89-12.08-54.3-14.37-9.3,2.54-11.93,5-11.93,5s29.24,4.32,29.24,9.4-18.83,9.91-22.37,10.17C482,136.87,520.79,133.05,526.1,126.7Z"/><path class="cls-4" d="M483.79,127.71c.26-2.26-18.61-7.87-24.81-7.62-2.21,9.91-3.32,16.78-3.32,16.78l9.52.25S483.35,131.52,483.79,127.71Z"/><polygon class="cls-5" points="470.06 109.68 457.43 115.78 459.2 94.19 470.72 91.64 470.06 109.68"/><path class="cls-4" d="M468.73,89.1,456.1,92.91s1.33,30.23-3.54,43.7a81.27,81.27,0,0,1-10.64.26s7.75-23.88,6.87-44.71C450.34,87.07,466.07,88.34,468.73,89.1Z"/><path class="cls-4" d="M444.35,115l-4.65,22.1-56,2s2.8-13,2.58-17.79C401.52,115.52,429.18,110.82,444.35,115Z"/><path class="cls-1" d="M382.42,119.35c-1.06-3.38-5.71-5.85-8.63-3.62-2.19,5.58-1.7,17.84-1.7,17.84l4.26,6.28,4-.42S383.52,122.84,382.42,119.35Z"/><path class="cls-2" d="M404.18,210.92c2.13.72-5.81-28-11.31-37.85s-26-45.91-30.27-54.68-23.22-39.95-31.78-55S303,2.39,299,4.49s2.46,15.42,5.51,23.48,26.28,52.22,29.95,58.53,11,20.68,11,20.68,9.17-2.81,11.3,18.92c4,9.82,24.75,53.28,25.68,53.63S399,209.17,404.18,210.92Z"/><path class="cls-6" d="M528.58,129.61s-31.79,9.46-60.22,10.52c-26.59,1.4-87.41,3.5-87.41,3.5L395,167.11s61.44-5.61,92.3-12.61c30.57-6,41.88-9.12,43.41-14.37S532.55,129.26,528.58,129.61Z"/><path class="cls-6" d="M372.09,167.11,360.47,144s-31.48-1.75-71.83-13S212.24,106.83,185,99.12,113.82,77,106.48,76.68s-5.2,4.56-5.51,9.47,2.76,32.59,5.51,34,53.79,9.12,66,13,66,20.33,112.17,27.34A617.94,617.94,0,0,0,372.09,167.11Z"/><path class="cls-6" d="M380,182.53l-5.82-9.46s-40.65-2.11-79.46-6.31-71.22-15.07-90.17-19.27-70-18.23-87.11-19.28c.31,18.22,1.68,27.86,3.52,30,10.09,0,38.05,5.79,51.35,11.05s37.14,12.61,37.14,12.61c-21.56-4.2-72.9-24.71-87.12-17.87a113.8,113.8,0,0,0,2.3,11.56s28.43-.52,50,6.83,57.31,18.41,61,18.93,5.95,3.68.45,2.63-38-9.46-49.51-13.67-56.4-15.77-61.89-7.89c5.49,22.09,18.8,45.74,18.8,45.74s35.3,3.69,50,5.26,33.47,5.25,39.43,7.37c-30.71-3.69-84.81-8.94-88-6.84,1.38,4.72,2.75,8.94,2.75,8.94s14.21-6.32,17.42,1.05-5.5,7.36-3.21,10.51,13.3,1.05,16.52,3.68,9.61,0,9.61,0,11.46-3.68,9.18,3.15c10.54,4.21,31.17,5.79,35.75,5.79,4.59-2.1,40.81-6.31,44.48-10,4.59-3.68,6.41-4.21,10.08-.52a18.75,18.75,0,0,0,17.43,5.25,116.33,116.33,0,0,0,17-5.25s-8.25,3.68-8.71,7.36,10.55,3.15,14.67,1,10.08-5.26,13.29-3.69,20.17,6.84,24.3,4.74c-2.74-7.89,11-6.83,15.59-3.69s11.92,9.47,12.84,10S383.24,258.59,381,248.6c-28-1.57-53.64-.53-62.81-3.68,14.67,2.62,54.09.52,60.52-.53-1.38-12.61-4.58-22.08-2.75-30.49-12.84-.53-40.34-4.73-43.56-4.21s1.83-3.14,13.3-2.09,30.26,0,30.26,0S378.65,187.44,380,182.53Z"/><path class="cls-7" d="M350.76,113.81c-2.67-4.14-6.28-1.66-7,1.12s1.45,23.55,1.45,23.55,6.76.83,7.25-.28S354.88,120.19,350.76,113.81Z"/><path class="cls-4" d="M339.65,121.57s-53.39,1.67-62.58,1.39c16.19,6.65,64,14.68,64,14.68Z"/><path class="cls-6" d="M511.62,156.07s-99.95,16.3-113.71,16.3a24.1,24.1,0,0,1,1.84,7.89s22.47,4.2,34.84,24.7c14.67,2.11,68.77-14.72,68.77-14.72S515.74,170.79,511.62,156.07Z"/><path class="cls-6" d="M500.15,195s-52.72,13.15-62.35,14.2c14.21,21,21.09,30.49,21.09,30.49l22.92-3.16S501.53,211.27,500.15,195Z"/><path class="cls-6" d="M477.23,241.76c.51-1.46-14.21,1.59-14.21,1.59l5.5,10.51S476.31,244.39,477.23,241.76Z"/><path class="cls-2" d="M475.39,274.88c-.28-2.32-38.51-62-45.38-70.44S408.92,185,402,183.93c3.67,11,7.8,25.76,5.5,30s-18.8-20.51-22.46-24.18c-3.21,7.88-8.25,35.75,0,54.15,7.79,17.87,9.17,20.5,9.17,20.5s1.38-5.78,5.5-3.16,11,7.89,11.46,11.57,0,7.36,2.29,7.36A16.72,16.72,0,0,0,425,275.41c4.59-4.21,10.09-18.4,16.05-15.24s-4.58,14.71-10.09,18.39-2.74,4.74-2.74,4.74,10.53-1.58,17-5.26,15.13-5.78,17.88-4.73-5,3.15-5,5.78C462.1,281.19,476.31,282.24,475.39,274.88Z"/><path class="cls-7" d="M380.74,138.05s5.14-15.66,2.33-19.82-8.3-4.56-10-.67a53.81,53.81,0,0,0-2.81,8.31S374,138.87,380.74,138.05Z"/><path class="cls-5" d="M112.79,54.59,95,43.51s-2.48,34.67-.5,54.85S105,169.74,119.62,204.44C131.55,232.83,138,243.87,138,243.87l4.59-3.69S128.33,205,121.46,183.41s-9.17-56.25-9.17-56.25l-9.63-5.27s-5.5-39.42-4.13-48.36C99.45,65.12,110,73,110,73Z"/><path class="cls-4" d="M89.82,43,77.91,46.72,76.06,71.43l3.22,9.46-1.37,5.26-1.85-7.88L72.4,69.33l.46-21.56-6,3.68s1.83,51,5,70.44S93,215,111.82,246c5.05,4.21,3.68-11,7.8-11.57s6.88,10.52,7.8,13.67c1.83-.53,6-4.2,6-4.2s-4.59-11-11.46-25.76a336.32,336.32,0,0,1-22.47-68.35C94,123,88.45,68.27,89.82,43Z"/><path class="cls-6" d="M62.28,84.2S37,91.31,24,103.41,4.74,120.75,5.1,126s7.28,26.52,8.2,27.78,7.28,4.17,7.83,3.76-.73-6.69-.73-6.69-4.56.84-3.64-4,41.33-24.43,50.61-29.23A273.91,273.91,0,0,1,62.28,84.2Z"/><path class="cls-6" d="M67,124.1c-.91,0-37.51,12.11-43.15,28C29.5,178,34.78,193.63,35.33,193.84s34.6-20.26,41.88-20.68C70.84,155,67,124.1,67,124.1Z"/><path class="cls-6" d="M77.58,176.3c-.22-.83-32.06,13.15-39.51,22.13A190.89,190.89,0,0,0,60.82,235.6c4.56-7.51,32.24-15.44,33.69-15.44C86.32,202.19,78.13,178.4,77.58,176.3Z"/><path class="cls-6" d="M94.87,222.87s-24.76,6.06-31.31,15.45c4.91,6.06,6.74,7.52,6.74,7.52s8.91-.42,13.29,3.76,14.74,8.76,17.11,6.47S88,250,90,247.51s15.47-2.09,17.29-1.88c-5.45-8.14-18.75-16.29-8.92-17.54A11.84,11.84,0,0,0,94.87,222.87Z"/><path class="cls-8" d="M502.8,251.76c-.09-2.34-16.07-1.87-26,15.27C482.69,261.81,503,256,502.8,251.76Z"/><path class="cls-8" d="M492.81,273.31c.16-.35-6.71,1.4-16.19,6.48s-18.95,4.73-20.33,1a5.2,5.2,0,0,1,1.07-5.78s-21.7,10.51-27.66,10.34-9.17-.53-6.11-3.16,18.18-13.66,15.89-19.1-9.32,10.17-12.53,13.67-11.31,6.31-14.82,4.38c1.37,3.33,2.9,5.27,3.21,5.08s-5.2-1.75-5.81-8.94-3.22-9.1-5.81-11-4.59-6-5.5-2.27,1.53,7,4.13,11,3.52,8.59-1.38,6-12.83-11.21-16.2-13.67-10.39-10.16-13.91-5.26,4.28,9.64,11,13.32,12.38,4.73,11.76,8.59-10.54-.7-10.54-1.23,6.57.53,5.35-1-17.73-4.73-20.79-13.14c-13.29.52-24-4.91-27.81-5.26s-10.09,4.56-18.18,4.38-11.93-1.57-10.4-5.44c-6.11,3.34-21.23,1.59-26.74-5.95-4.28,7.18-23.54,9.82-31.94,11.21s-28.27,2.81-42.48-.87c-14.06-2.8-16.35-2.8-15.89-3.16s-3.68,2.8-4.13,2.8c4.88-3.32,6.41-6.83,2.13-6.83s-13.14,2.46-17.26,1.23-3.68-3-8.26-2.46-8.71,2.11-9.32-2.44,8.56-9.82,3.21-11.92-26.13,7-33.16,8.41-11.92.7-11.46.7c8.25-4.73,9.93-11,5.19-13.67s-6.57,11.74-9.16,11.74-16.06-4.74-16.82-2.45,11.31,4.55,9.79,10S93.8,260,89.21,256.84s-13.6-11.4-15.28-8.93,8.41,7,6,11.21-20.33,4.2-26.44,1.4-15.58-14.38-17.11-12.1,10.85,9.64,9.93,12.27-6.27.87-6.27.87-20.17,1.94-24.29,1.05-11.92-2.79-11.77,0,18.18.71,24.45,3.52,5.5,2.62,3.06,5.25-10.55,2.8-9.33,6.14,37.74-10.35,46-5.09c5-1.76,3.82-.53,3.82-.53s-3.82,1.41-2.44,3.51,16,.88,24-2.27,23.83-1.76,27.2-.36c4.89-4,6.41-3.68,6.41-3.68a123.84,123.84,0,0,1-10.7,7.71c-3.66,2.11-4.88,5.09-3.82,6s15.13,3.16,25.67,0,38.21-7.19,44-5.6c4.89-4.39,9.31-3.86,9.31-3.86s-6.42,5.79-5,7.71,22.31-2.11,31.48-2.11,29.19,1.23,33.62,3.51,12.08,1.05,6.57-6.31a17.48,17.48,0,0,0-8.1-.35s5.05-4.21,15.44-2.8,15.43,4.72,17.43,3.5,3.51-1.58,1.52-4.91c0-1.57,4.12.71,4.74.88s29-1.23,35.61,1.41,17.72,4.72,17.72,4.72,5.05-2.1,9.78-1.22c-6.87,1.92-8.25,4-7.49,5.25s15.44.18,18,.71,6.11.7,7,2.8c.76,2.45-7.95,3.68-8.1,5.61s9.47,1.75,13,.17,13.6-2.63,19.56-2.28,19.41-2.27,27.05-1.05,26.9.7,34.84,1.23,31.49,4.39,32.25,1.23-3.66-5.61-4.74-5.78c2.3-1.23,9.33.7,14.21,3.14s13.91-5.6,19.42-8.75c-6-1.41-9.79,2.28-15.9,1.57S488.69,282.77,492.81,273.31Z"/><path class="cls-9" d="M474.71,277.74c1-1.5-2.81-9.37-8.59-18.26s-21.23-33.09-23.72-36.68-9.53-5.62-8.9.31,6.87,14.51,3.75,16.23-5.47-7.8-6.4-7.49,3.12,13.42.46,15-5.93-9.37-8.11-7.66,0,13.27-2.66,14.21-8.74-16.39-11.7-15.92,4.06,17,.31,17S399.32,234.19,396,233.1s2.18,19,.15,18.42-14.67-23.88-15.29-25.6c.31,10.3,10.61,35.9,13.11,39.33.62-5,3.59-5.3,6.4-3.28s8.9,5.47,10.3,10c1.09,3.59.16,6.56,1.41,7.5s9.2,1.4,14.36-5.15c4.37-6.25,10-17.66,14.53-14.14,2.48,2.43,0,9.61-4.39,13.2s-11.55,9.36-10.46,10.61,9.53-.34,14-3.11,21.29-10.37,23.35-6.81c0,.79-7.05,2.45-5.94,5.3.8,1.75,8.47,2.54,11.32,1.75S473.26,280,474.71,277.74Z"/><path class="cls-10" d="M531.48,132.52c1.19-.5-.23-3.39-3.73-2.45S433.33,148.6,380,142.64c2,3.58,2.18,4.57,2.58,4.57s72.43-2.78,98.23-5.56S522.87,136.08,531.48,132.52Z"/><path class="cls-10" d="M360.47,144s-58.79-6.68-98.42-21.28c-40-14.25-136.63-46.24-158.53-45.89-5.21.35.35,2.78,7.65,4.52s89,28.85,119.94,42.07,126.2,24,129.33,24.33S360.47,144,360.47,144Z"/><path class="cls-10" d="M61.91,85.26c-.4-1.75-12.33-.89-28.26,9.87S2.48,116.44,5.39,127.43c-.22-4.26,12.56-20.41,30.5-28S63,90.2,61.91,85.26Z"/><path class="cls-4" d="M380.12,184.74l-5.9-11.67s-77.92-4.31-106.62-10.18-125.42-34.46-150.12-34.68c-.56,8.91.42,21.63.74,21.31s-.32-14.68,8.16-14,72.72,14.68,100.12,22.83,101.43,17.29,138.61,18.92C372.61,177.24,379.47,182.13,380.12,184.74Z"/><path class="cls-4" d="M511.38,161.89c2.41-.61,2.56-6.14.24-5.82-3.63.59-104.49,14.7-114.42,15,1.05,3.66,1.57,6.27,1.57,6.27C409,178.09,480.29,169.73,511.38,161.89Z"/><path class="cls-4" d="M500,200.81s3.86-7.43-2.47-4.68c-8.82,2.48-54.75,12.3-59.73,13a60.86,60.86,0,0,0,3.28,5.41S478,212.38,500,200.81Z"/><path class="cls-4" d="M375,220.36s3.36-7.66-.61-8.06S256.51,207.54,212.06,198c-23-6.35-72.38-24.57-87.39-15.66A65.47,65.47,0,0,0,128.21,194c-.75-4.92-1.61-9.73.85-10.16s63.15,12.35,88.16,19.7,90.69,10.92,109.34,11.11S372.83,214.53,375,220.36Z"/><path class="cls-4" d="M76.24,172.66S67,134.66,67,124.1C56.33,125.79,30.29,138,23.55,153.67c.61,8,9.17,36.83,11.78,40.17-2.9-14.44-8.72-32.82.47-43.54s22.06-20.84,27-19C64.6,137.12,68.58,173.27,76.24,172.66Z"/><path class="cls-4" d="M91.79,214.82s-12.85-32.53-14.05-37.75c-1-1-7.23,2.21-13,5s-26.94,12-26.62,16.34c1.72,4.54,10.56,21,15.37,27.44-5.42-11.05-9.84-27.11-5.62-30.73s24.1-15.66,27.11-13.25,5.42,15.46,8.23,20.68S95.41,224.66,91.79,214.82Z"/><path class="cls-11" d="M502.49,252.83c.42-.39,2.35-1.43.64-3.07s-6.35-1.07-12.63,3-12.28,9.79-13.73,14.27c3.1-5.21,15.23-11.49,18.73-12.63S501.49,253.76,502.49,252.83Z"/><path class="cls-11" d="M523.27,276.37s-2.26-1.92-6.44,0-14.9,5-19.64,4.63c-4.18-.34-5.31-1.93-5-4s1.19-3,.59-3.73-6.57,1.48-11.77,4.19-13.77,7-19.64,6.2c3.72,1.47,13.77.68,18.74-2s6.44-2.59,7.68-.79,1.69,4.18,6.32,3.39,13.32-.79,16.37-1.69S519.09,278.85,523.27,276.37Z"/><path class="cls-11" d="M458.21,282.74s-2.34-1.73-2.19-3.52,2.09-3.75,3.88-4.31c1.48-.55,2.19-1.05,1-1a28.69,28.69,0,0,0-10.26,2.74c-4.22,2.16-15.74,8.46-20.31,8.76,3,.2,12.16-2.18,16-4.17s5.46-4,5.95-2.68S454.26,281.58,458.21,282.74Z"/><path class="cls-11" d="M432.5,274.89s6.58-3.82,8.24-10.28c.33-2.44-1-4.1-2.82-3.64s-5.88,7-8.4,11.31-7.58,8.53-11,9.11c-2.77.5-5.63.54-6.29,0,1.4,1.16,7.08,1.32,9.23.5s9.24-7.38,11.1-10.44,4-6.5,4.76-5.76S435,272.23,432.5,274.89Z"/><path class="cls-11" d="M411.49,283.68s-1.8-4.5-1.93-7.32a11.58,11.58,0,0,0-4.24-9.13c-3.47-2.82-5.52-6.16-8-4.36s1.28,8.73,3.72,10.92a9.86,9.86,0,0,1,2.83,4.62c-.77-4.62-5.14-11.56-2.83-11.18s4.12,1.68,5.66,6.56S409.56,282.14,411.49,283.68Z"/><path class="cls-11" d="M401,281a40.37,40.37,0,0,1-10-8c-3.85-4.63-14.77-15-21.33-11.44-1.79,1.93.52,7.33,7.2,11.31-4.24-4.5-4.88-8-1.29-7.45S389.42,277.71,401,281Z"/><path class="cls-11" d="M363.92,268.79s-10.29-1.5-13.84-2.93-11-4.43-12.95-3.47-10.56,4.76-14.51,5-9.81-.07-11-1.91c-.55-1-.29-3-.32-3.26-2.14.94-11.13,2-14.6.94-3.62-1-9.13-3.47-11-5.59-1.09-1.22-1.71-3.2-4.16-1s-33.19,9.89-48.37,12.12c3.42.75,5.21,1.49,8.93,1.19-8.63,1.79-39.59-1.93-47.63-5.66,11.31,5.81,42.12,9.23,52.1,7.6s18.75-2.24,22.77-3.87,8.78-3.43,6.85-1.34-5.06,3.72-4.47,3.72a74,74,0,0,1,14.59-3c8.48-.74,11.76-.6,11.16,1.19s5.06,1.94,9.23,1a17.55,17.55,0,0,1,10,.75c2.38.89,12.8.15,17.86-2.09s6.1-2.23,10.12-1S358.25,269,363.92,268.79Z"/><path class="cls-11" d="M193,263.67c0,.12,2.48-2.36,2.08-4.48-.39-1.6-3.68-.92-6-.16a63.71,63.71,0,0,1-10.44,1.68,9.71,9.71,0,0,1-4.32-.32c1.56-.44,2-1.64.28-2.4s-6-1.08-9-.52-7.12.76-7.8-.08-.16-4.2,1.24-6,5.08-4.49,3.48-6.84-9.2-3.08-24.08,3.32c-14.59,5.51-17.71,5.81-19.65,6,5.06.74,17.86-1.05,23.37-3.13s8.93-3.57,8.63.74-1.78,8.64-8.63,14.44c5.95-2.53,23.37-4,26.49-4s6.7,1.19,11,.75,10.86-3,11.91-1.94S193.68,261.16,193,263.67Z"/><path class="cls-11" d="M120.14,250.17s4.22-2.49,4.35-7.24c0-2.9-2.26-7-4.44-6.93s-3.21,5.21-4.16,7.83-2.17,5.89-3.71,7.2c2-.41,4.75-3.71,5.66-6.16s1.76-4.3,2.85-3.3S122.54,245.19,120.14,250.17Z"/><path class="cls-11" d="M104.58,259.07c.19-.28-5.25,3.17-10.83.22s-17.17-13.78-20.56-11.48c-.77,1.31,1.64,4.15,3.5,5.68s3.39,2.19,3.5,4.7c.22-1.85-2.84-6.23-1.42-6s4.81,2.84,8.75,5.69S99.77,266.07,104.58,259.07Z"/><path class="cls-12" d="M380.42,137.8c1.16-.74,4.23-12.49,4.55-15.45a8.35,8.35,0,0,0-4.76-7.93c-3.07-1.38-7.09-.64-6.77,1.48s1.16,3.39,4.65,4.13,4.55-.11,4.23,2.75S378.41,139.06,380.42,137.8Z"/><path class="cls-12" d="M352.07,116.22c-.75-2-2.85-7.94-8.57-2.33-1.37,1.38-1.16,2.75.85,2.64s4.55-.73,5.71.75,2.47,19.32,2.4,20.92C353.76,126.8,354.08,121.72,352.07,116.22Z"/><path class="cls-3" d="M403.15,210.34c.52.74,1.05,2.55,2.32,1.39s-6-28.14-8.69-35.79-28.15-47.59-36.08-60.88-27.19-47.23-30.76-54.77-24.22-47.24-27-47.24,13.69,29.57,18.25,39.3S346,102,348.39,104.74s7.54,9.13,9.92,15.08,5.16,15.08,11.71,25.8S401.35,207.79,403.15,210.34Z"/><path class="cls-3" d="M474.35,276.21c1.1-1.3-7.47-18.69-13.25-28.54S435,206.22,426.79,198.75,405.49,183,402,183.93c-1.4.89,2.67,2.59,6.07,5.65s16.31,11.89,22.08,19.36a219.56,219.56,0,0,1,16.65,23.78c6.11,10.19,13.25,18.35,11.89,21.4s-3.4-5.77-6.12-3.05,2.72,6.11,2.38,9.85-5.44-.34-5.44,3.4,12.57,1.69,15.29,6.45-3.06,6.79-1,7.81A8.57,8.57,0,0,0,474.35,276.21Z"/><path class="cls-3" d="M273.22,42.09s2.76-1.38,2.17,4.53S269.67,64,267.3,70.29s-10.25,26-11.64,30.18-4.53,14-5.72,14.2-2.17-.39-.59-4.73,14.4-37.67,16.18-42.21,7.49-20.12,7.1-21.9S271.05,44.06,273.22,42.09Z"/></g></g></svg>